<?xml version="1.0" encoding="UTF-8"?>
<svg width="800" height="800" viewBox="0 0 800 800" xmlns="http://www.w3.org/2000/svg">
  <path d="M400 100 L500 300 L600 200 C600 200 650 250 680 350 C710 450 720 550 680 650 C640 750 550 800 400 800 C250 800 160 750 120 650 C80 550 90 450 120 350 C150 250 200 200 200 200 L300 300 Z" fill="#FFA500"/>
  <path d="M400 100 L500 300 L400 250 Z" fill="#FF4500"/>
  <path d="M400 100 L300 300 L400 250 Z" fill="#FFD700"/>
  <circle cx="400" cy="250" r="20" fill="#000000"/>
  <rect x="390" y="250" width="10" height="150" transform="rotate(45 400 250)" fill="#000000"/>
</svg> 